#!OML:ASF G:\JayActor3\Patient Classification 1\Patient 1\Session 5\male.ASF
:FULLY-SPECIFIED
:DEGREES
951
root -10.5382 16.9774 -4.55923 -385.569 88.5256 -386.11
lowerback 0.312206 -0.852285 -0.572493
upperback 1.46093 -1.11712 -0.631219
thorax 1.31875 -0.556826 -0.334747
lowerneck -7.68711 0.356715 2.54727
upperneck 13.3245 0.0707754 1.33386
head 5.27887 0.296958 0.00652896
rclavicle -1.98785e-015 -7.15625e-015
rhumerus -31.5836 -3.69215 -87.9942
rradius 31.0294
rwrist -0.626503
rhand -18.2814 -8.00326
rfingers 7.12502
rthumb 7.99875 -37.8319
lclavicle -1.98785e-015 -7.15625e-015
lhumerus -29.5145 2.0762 85.0067
lradius 29.677
lwrist 18.8313
lhand -17.5677 13.5269
lfingers 7.12502
lthumb 8.68755 43.3281
rfemur -24.917 5.24735 24.2923
rtibia 34.428
rfoot -14.2656 -12.6524
rtoes 7.08888
lfemur 22.0956 4.2595 -20.8973
ltibia 5.08889e-014
lfoot -4.39879 -5.08145
ltoes -5.81883
952
root -10.6376 16.9779 -4.58483 -386.143 88.5758 -386.698
lowerback 0.411 -0.869009 -0.545564
upperback 1.47836 -1.1398 -0.643203
thorax 1.28041 -0.56756 -0.36078
lowerneck -7.70164 0.351535 2.54146
upperneck 13.3475 0.0653762 1.32267
head 5.28842 0.293727 0.00370166
rclavicle 1.39398e-014 4.77083e-015
rhumerus -31.6253 -3.50599 -88.0626
rradius 31.2725
rwrist -0.770669
rhand -18.2674 -7.99912
rfingers 7.12502
rthumb 8.01227 -37.8272
lclavicle 1.39398e-014 4.77083e-015
lhumerus -29.4543 2.03098 85.0483
lradius 29.7523
lwrist 18.877
lhand -17.5696 13.4706
lfingers 7.12502
lthumb 8.68566 43.2719
rfemur -25.3468 5.17319 24.119
rtibia 34.471
rfoot -13.7 -12.6577
rtoes 7.45465
lfemur 21.754 4.27676 -21.0168
ltibia 5.725e-014
lfoot -4.89352 -5.1768
ltoes -5.20872
953
root -10.737 16.9787 -4.61075 -387.671 88.6227 -388.224
lowerback 0.533143 -0.887483 -0.498125
upperback 1.49604 -1.16509 -0.648063
thorax 1.22891 -0.579409 -0.390556
lowerneck -7.7135 0.345833 2.53821
upperneck 13.3604 0.0591162 1.31088
head 5.29438 0.289935 0.000179712
rclavicle -5.44173e-015 1.59028e-015
rhumerus -31.6793 -3.32117 -88.1217
rradius 31.5086
rwrist -0.901624
rhand -18.2601 -7.99552
rfingers 7.12502
rthumb 8.01929 -37.8234
lclavicle -5.44173e-015 1.59028e-015
lhumerus -29.4091 1.99459 85.0907
lradius 29.827
lwrist 18.9155
lhand -17.5797 13.4255
lfingers 7.12502
lthumb 8.67598 43.2272
rfemur -25.7483 5.08052 23.9618
rtibia 34.4986
rfoot -13.1285 -12.6411
rtoes 7.77499
lfemur 21.4209 4.28235 -21.1037
ltibia -1.27222e-014
lfoot -5.32709 -5.31549
ltoes -4.52405
954
root -10.8364 16.9798 -4.63673 -389.92 88.6566 -390.463
lowerback 0.669838 -0.904485 -0.434832
upperback 1.51435 -1.18849 -0.647069
thorax 1.16968 -0.590177 -0.422878
lowerneck -7.71723 0.336864 2.53473
upperneck 13.3559 0.048358 1.30221
head 5.29352 0.283771 -0.00269269
rclavicle -3.04389e-014 -1.07344e-014
rhumerus -31.7427 -3.14609 -88.1712
rradius 31.7335
rwrist -1.01252
rhand -18.259 -7.98681
rfingers 7.12502
rthumb 8.02039 -37.8146
lclavicle -3.04389e-014 -1.07344e-014
lhumerus -29.3729 1.9614 85.1339
lradius 29.8988
lwrist 18.9478
lhand -17.5978 13.4106
lfingers 7.12502
lthumb 8.65849 43.213
rfemur -26.1328 4.975 23.8204
rtibia 34.5133
rfoot -12.5436 -12.6064
rtoes 8.01076
lfemur 21.0906 4.28825 -21.1647
ltibia -9.54166e-015
lfoot -5.70477 -5.47264
ltoes -3.79644
955
root -10.9356 16.9809 -4.66249 -392.255 88.6758 -392.783
lowerback 0.811738 -0.917137 -0.371178
upperback 1.53387 -1.20591 -0.643074
thorax 1.10883 -0.597989 -0.452158
lowerneck -7.71759 0.328518 2.53217
upperneck 13.3364 0.0373801 1.30138
head 5.28747 0.277766 -0.00332643
rclavicle 1.77167e-014 1.23246e-014
rhumerus -31.8071 -2.9911 -88.2092
rradius 31.9385
rwrist -1.10014
rhand -18.2655 -7.97625
rfingers 7.12502
rthumb 8.01413 -37.8043
lclavicle 1.77167e-014 1.23246e-014
lhumerus -29.3439 1.93247 85.1754
lradius 29.9648
lwrist 18.9797
lhand -17.6056 13.3988
lfingers 7.12502
lthumb 8.65092 43.2015
rfemur -26.5086 4.86013 23.6834
rtibia 34.518
rfoot -11.9369 -12.5555
rtoes 8.12452
lfemur 20.7592 4.30348 -21.2166
ltibia 3.18055e-015
lfoot -6.03265 -5.62981
ltoes -3.0392
956
root -11.0349 16.9819 -4.68778 -393.884 88.6795 -394.401
lowerback 0.947123 -0.92305 -0.322764
upperback 1.55654 -1.21405 -0.639547
thorax 1.05519 -0.601319 -0.47348
lowerneck -7.71223 0.318602 2.52971
upperneck 13.2952 0.0237644 1.30563
head 5.27366 0.270345 -0.00262504
rclavicle 1.68967e-015 7.95139e-016
rhumerus -31.8576 -2.85786 -88.2369
rradius 32.111
rwrist -1.16205
rhand -18.2802 -7.95997
rfingers 7.12502
rthumb 7.99988 -37.7886
lclavicle 1.68967e-015 7.95139e-016
lhumerus -29.3137 1.90369 85.2161
lradius 30.0192
lwrist 19.0088
lhand -17.6141 13.3966
lfingers 7.12502
lthumb 8.64273 43.1997
rfemur -26.8883 4.73995 23.5386
rtibia 34.5173
rfoot -11.305 -12.4852
rtoes 8.0876
lfemur 20.4192 4.33898 -21.2762
ltibia 9.54166e-015
lfoot -6.31454 -5.77487
ltoes -2.26685
957
root -11.1341 16.9827 -4.71236 -394.514 88.6607 -395.029
lowerback 1.06724 -0.919327 -0.290495
upperback 1.58234 -1.20908 -0.637077
thorax 1.0137 -0.598253 -0.487155
lowerneck -7.70696 0.309972 2.5256
upperneck 13.238 0.0109654 1.31795
head 5.25492 0.263433 0.000884309
rclavicle -2.05245e-014 7.55382e-015
rhumerus -31.894 -2.74986 -88.2558
rradius 32.2523
rwrist -1.19493
rhand -18.2951 -7.9376
rfingers 7.12502
rthumb 7.98548 -37.7668
lclavicle -2.05245e-014 7.55382e-015
lhumerus -29.2812 1.87198 85.2553
lradius 30.0662
lwrist 19.0383
lhand -17.622 13.4121
lfingers 7.12502
lthumb 8.63515 43.2155
rfemur -27.2803 4.62273 23.3885
rtibia 34.5137
rfoot -10.6531 -12.3934
rtoes 7.88189
lfemur 20.0663 4.40488 -21.3448
ltibia -9.54166e-014
lfoot -6.56254 -5.89624
ltoes -1.56115
958
root -11.233 16.9834 -4.73603 -393.695 88.6203 -394.218
lowerback 1.16514 -0.904552 -0.28377
upperback 1.61084 -1.18917 -0.638895
thorax 0.987992 -0.587946 -0.491406
lowerneck -7.69612 0.302424 2.52371
upperneck 13.1632 -0.000798427 1.33305
head 5.2298 0.256935 0.00492637
rclavicle 1.38404e-014 -5.56597e-015
rhumerus -31.9104 -2.66604 -88.2685
rradius 32.3564
rwrist -1.19718
rhand -18.3146 -7.91259
rfingers 7.12502
rthumb 7.96673 -37.7425
lclavicle 1.38404e-014 -5.56597e-015
lhumerus -29.249 1.83791 85.2901
lradius 30.1036
lwrist 19.0685
lhand -17.6297 13.4394
lfingers 7.12502
lthumb 8.62767 43.2431
rfemur -27.6863 4.52297 23.221
rtibia 34.5087
rfoot -10.0109 -12.276
rtoes 7.48924
lfemur 19.7009 4.50725 -21.4318
ltibia 5.08889e-014
lfoot -6.7844 -5.99308
ltoes -0.910593
959
root -11.3316 16.9844 -4.75888 -391.427 88.5576 -391.974
lowerback 1.23905 -0.87947 -0.302975
upperback 1.63995 -1.1554 -0.647759
thorax 0.976825 -0.570936 -0.488871
lowerneck -7.69485 0.298392 2.52257
upperneck 13.0916 -0.00891297 1.35271
head 5.20738 0.252625 0.0105312
rclavicle -1.65985e-014 -1.98785e-015
rhumerus -31.9137 -2.60168 -88.2786
rradius 32.431
rwrist -1.17553
rhand -18.3342 -7.89238
rfingers 7.12502
rthumb 7.94775 -37.723
lclavicle -1.65985e-014 -1.98785e-015
lhumerus -29.217 1.80301 85.3173
lradius 30.1271
lwrist 19.1007
lhand -17.6396 13.4692
lfingers 7.12502
lthumb 8.61816 43.2733
rfemur -28.1067 4.45178 23.0289
rtibia 34.5013
rfoot -9.41398 -12.1242
rtoes 6.78117
lfemur 19.3211 4.64764 -21.5421
ltibia -6.04305e-014
lfoot -6.98916 -6.0639
ltoes -0.334855
960
root -11.4296 16.9856 -4.78104 -388.203 88.4676 -388.786
lowerback 1.29103 -0.84464 -0.339483
upperback 1.66766 -1.1086 -0.662523
thorax 0.976793 -0.547566 -0.483146
lowerneck -7.69382 0.296684 2.52355
upperneck 13.0198 -0.0140507 1.37177
head 5.18492 0.249818 0.0158029
rclavicle -1.05604e-014 9.14409e-015
rhumerus -31.9018 -2.55936 -88.2863
rradius 32.4717
rwrist -1.12263
rhand -18.3538 -7.86776
rfingers 7.12502
rthumb 7.92889 -37.6991
lclavicle -1.05604e-014 9.14409e-015
lhumerus -29.1894 1.76983 85.335
lradius 30.1357
lwrist 19.1364
lhand -17.6384 13.4947
lfingers 7.12502
lthumb 8.61926 43.2988
rfemur -28.5362 4.42757 22.8132
rtibia 34.494
rfoot -8.92774 -11.9256
rtoes 5.61837
lfemur 18.9309 4.82404 -21.6695
ltibia -8.26944e-014
lfoot -7.18226 -6.10931
ltoes 0.196209
961
root -11.527 16.9868 -4.80266 -384.603 88.3467 -385.232
lowerback 1.32766 -0.80206 -0.385988
upperback 1.69074 -1.05152 -0.680338
thorax 0.98076 -0.519186 -0.475234
lowerneck -7.69546 0.300124 2.52894
upperneck 12.9601 -0.012199 1.38589
head 5.16673 0.250571 0.0193112
rclavicle 2.5842e-015 -3.18055e-015
rhumerus -31.8849 -2.53426 -88.2904
rradius 32.4874
rwrist -1.04906
rhand -18.3621 -7.85603
rfingers 7.12502
rthumb 7.9209 -37.6876
lclavicle 2.5842e-015 -3.18055e-015
lhumerus -29.1747 1.73966 85.3444
lradius 30.1294
lwrist 19.1769
lhand -17.6292 13.5087
lfingers 7.12502
lthumb 8.62813 43.3124
rfemur -28.9663 4.46378 22.5754
rtibia 34.4901
rfoot -8.61221 -11.6541
rtoes 3.94407
lfemur 18.5356 5.03289 -21.8069
ltibia -3.81667e-014
lfoot -7.36957 -6.1315
ltoes 0.684177
962
root -11.6233 16.9876 -4.82408 -381.055 88.2015 -381.731
lowerback 1.35756 -0.756815 -0.437523
upperback 1.71007 -0.990936 -0.700604
thorax 0.984675 -0.489124 -0.467128
lowerneck -7.70829 0.308658 2.53394
upperneck 12.9222 -0.00324832 1.39514
head 5.15725 0.25491 0.021902
rclavicle 4.44781e-015 -3.57812e-015
rhumerus -31.8687 -2.51469 -88.2925
rradius 32.486
rwrist -0.966326
rhand -18.3587 -7.83953
rfingers 7.12502
rthumb 7.92416 -37.671
lclavicle 4.44781e-015 -3.57812e-015
lhumerus -29.1716 1.71886 85.3453
lradius 30.1042
lwrist 19.2172
lhand -17.6141 13.5169
lfingers 7.12502
lthumb 8.64277 43.32
rfemur -29.3866 4.55852 22.3147
rtibia 34.5002
rfoot -8.50523 -11.2951
rtoes 1.73541
lfemur 18.144 5.26386 -21.9527
ltibia 2.22639e-014
lfoot -7.5513 -6.13562
ltoes 1.14407
963
root -11.7185 16.9876 -4.8455 -378.092 88.0345 -378.809
lowerback 1.39185 -0.711676 -0.478854
upperback 1.72563 -0.930599 -0.719377
thorax 0.982057 -0.459105 -0.463145
lowerneck -7.72386 0.319986 2.54308
upperneck 12.905 0.0104787 1.3919
head 5.15465 0.261387 0.0202979
rclavicle -9.49197e-015 -6.75868e-015
rhumerus -31.8538 -2.50419 -88.2912
rradius 32.4677
rwrist -0.873319
rhand -18.3396 -7.83158
rfingers 7.12502
rthumb 7.94254 -37.6624
lclavicle -9.49197e-015 -6.75868e-015
lhumerus -29.1876 1.70568 85.3393
lradius 30.0661
lwrist 19.2596
lhand -17.5881 13.5138
lfingers 7.12502
lthumb 8.66785 43.3158
rfemur -29.7838 4.70736 22.0449
rtibia 34.5365
rfoot -8.61964 -10.842
rtoes -0.912415
lfemur 17.7682 5.50955 -22.0929
ltibia 3.18055e-014
lfoot -7.73101 -6.12261
ltoes 1.53026
964
root -11.8122 16.9862 -4.8672 -375.551 87.8651 -376.291
lowerback 1.4381 -0.671681 -0.516514
upperback 1.73766 -0.877286 -0.738573
thorax 0.968996 -0.432553 -0.461469
lowerneck -7.73941 0.335268 2.5514
upperneck 12.9107 0.0307268 1.38076
head 5.15919 0.270982 0.016857
rclavicle -3.23025e-016 -3.97569e-016
rhumerus -31.8476 -2.49857 -88.284
rradius 32.4395
rwrist -0.778652
rhand -18.3192 -7.82247
rfingers 7.12502
rthumb 7.9623 -37.6525
lclavicle -3.23025e-016 -3.97569e-016
lhumerus -29.2257 1.69962 85.3293
lradius 30.013
lwrist 19.3005
lhand -17.5596 13.5137
lfingers 7.12502
lthumb 8.69535 43.3146
rfemur -30.1477 4.86768 21.7649
rtibia 34.6166
rfoot -8.9278 -10.2889
rtoes -3.78097
lfemur 17.4177 5.75523 -22.2385
ltibia 2.54444e-014
lfoot -7.9086 -6.09534
ltoes 1.84731
965
root -11.9045 16.9831 -4.88914 -373.641 87.6977 -374.387
lowerback 1.50133 -0.638588 -0.539965
upperback 1.74622 -0.833375 -0.754767
thorax 0.942633 -0.410563 -0.464444
lowerneck -7.75585 0.352906 2.5563
upperneck 12.9397 0.0554375 1.36317
head 5.17109 0.282659 0.0123263
rclavicle -9.93923e-016 -1.98785e-015
rhumerus -31.8536 -2.4978 -88.2706
rradius 32.4082
rwrist -0.687816
rhand -18.2951 -7.80309
rfingers 7.12502
rthumb 7.98556 -37.6322
lclavicle -9.93923e-016 -1.98785e-015
lhumerus -29.2835 1.70584 85.3153
lradius 29.943
lwrist 19.3331
lhand -17.5266 13.5131
lfingers 7.12502
lthumb 8.72715 43.3127
rfemur -30.4727 5.01877 21.4967
rtibia 34.7555
rfoot -9.40353 -9.66087
rtoes -6.55474
lfemur 17.0935 5.99437 -22.377
ltibia 2.22639e-014
lfoot -8.07857 -6.05543
ltoes 2.10023
